<?xml version="1.0" encoding="utf-8"?>
<!-- Generator: Adobe Illustrator 27.5.0, SVG Export Plug-In . SVG Version: 6.00 Build 0)  -->
<svg version="1.1" xmlns="http://www.w3.org/2000/svg" xmlns:xlink="http://www.w3.org/1999/xlink" x="0px" y="0px"
	 viewBox="0 0 92.394 61.534" style="enable-background:new 0 0 92.394 61.534;" xml:space="preserve">
<g id="Layer_2">
</g>
<g id="Layer_1">
	<rect x="0" style="fill-rule:evenodd;clip-rule:evenodd;fill:#F5F5F5;" width="92.394" height="61.534"/>
	<g>
		
			<radialGradient id="SVGID_1_" cx="53.3607" cy="74.5396" r="15.1698" fx="48.9318" fy="74.1757" gradientTransform="matrix(-1.6278 0.1059 0.0226 0.3287 129.0221 7.9077)" gradientUnits="userSpaceOnUse">
			<stop  offset="0" style="stop-color:#000000"/>
			<stop  offset="0.0643" style="stop-color:#2A2A2A"/>
			<stop  offset="0.1515" style="stop-color:#5B5B5B"/>
			<stop  offset="0.2433" style="stop-color:#878787"/>
			<stop  offset="0.338" style="stop-color:#ACACAC"/>
			<stop  offset="0.4363" style="stop-color:#CACACA"/>
			<stop  offset="0.5395" style="stop-color:#E2E2E2"/>
			<stop  offset="0.6496" style="stop-color:#F2F2F2"/>
			<stop  offset="0.7714" style="stop-color:#FCFCFC"/>
			<stop  offset="0.9283" style="stop-color:#FFFFFF"/>
		</radialGradient>
		<path style="opacity:0.87;fill:url(#SVGID_1_);" d="M18.934,40.2c0.196,2.75,11.389,4.266,25.022,3.382
			c13.633-0.887,24.519-3.842,24.34-6.591c-0.197-2.756-11.393-4.27-25.029-3.386C29.643,34.498,18.752,37.447,18.934,40.2z"/>
		<g>
			<g>
				<path style="fill:#3B2A98;" d="M49.634,22.784l-1.894,1.725l3.192,6.897l-6.62-3.736l-5.603,5.139l1.542-7.464l-1.081-0.603
					c-3.91,1.417-7.885,10.225-6.569,10.366l18.308,2.116c1.566,0.181,2.812-0.973,3.177-2.519
					C55.601,28.253,55.383,23.294,49.634,22.784z"/>
			</g>
			<path style="fill-rule:evenodd;clip-rule:evenodd;fill:#DD2A1B;" d="M40.031,22.102c2.428,0.281,4.563-0.808,4.754-2.455
				c0.186-1.61-1.64-3.194-4.069-3.475c-2.428-0.28-4.567,0.845-4.754,2.455C35.772,20.274,37.602,21.821,40.031,22.102
				L40.031,22.102z"/>
		</g>
		<g>
			<path style="fill:#3B2A98;" d="M27.159,44.12c0.02,0,0.241,0.057,0.664,0.169c0.137,0.033,0.336,0.106,0.593,0.217
				c0.203,0.086,0.38,0.195,0.529,0.326c0.148,0.133,0.269,0.285,0.361,0.456c0.113,0.264,0.168,0.525,0.168,0.782
				c0,0.258-0.061,0.501-0.182,0.728c-0.123,0.227-0.282,0.428-0.476,0.603c-0.194,0.174-0.434,0.313-0.718,0.416
				c-0.283,0.102-0.584,0.153-0.9,0.153c-0.311,0-0.594-0.024-0.851-0.069c-0.258-0.048-0.492-0.121-0.703-0.224
				c-0.211-0.102-0.374-0.186-0.489-0.252c-0.116-0.065-0.267-0.169-0.451-0.311c-0.185-0.142-0.298-0.226-0.336-0.253l0.366-0.386
				c0.686,0.68,1.454,1.013,2.306,0.999c0.277,0.027,0.549,0.004,0.817-0.069c0.267-0.073,0.473-0.191,0.619-0.356
				c0.481-0.541,0.593-1.032,0.335-1.473c-0.258-0.443-0.815-0.744-1.671-0.901c-0.853-0.158-1.483-0.4-1.891-0.728
				c-0.409-0.326-0.614-0.747-0.614-1.261c0-0.528,0.196-0.96,0.59-1.297c0.391-0.335,0.948-0.523,1.667-0.563
				c0.197-0.014,0.389-0.011,0.574,0.005c0.185,0.015,0.351,0.047,0.499,0.093c0.149,0.046,0.279,0.093,0.392,0.139
				c0.112,0.046,0.223,0.105,0.331,0.178c0.109,0.072,0.19,0.128,0.243,0.167c0.052,0.04,0.117,0.093,0.192,0.159
				c0.076,0.066,0.118,0.103,0.124,0.11l-0.316,0.404c-0.192-0.211-0.475-0.392-0.846-0.544c-0.373-0.152-0.751-0.234-1.133-0.247
				c-0.494-0.014-0.913,0.098-1.252,0.331c-0.339,0.235-0.514,0.589-0.518,1.064c0,0.158,0.016,0.287,0.048,0.386
				C25.354,43.493,25.998,43.843,27.159,44.12z"/>
			<path style="fill:#3B2A98;" d="M32.403,47.851H31.92v-6.463h-2.445v-0.485h2.445h0.484h2.416v0.485h-2.416V47.851z"/>
			<path style="fill:#3B2A98;" d="M32.963,47.851l3.186-6.948h0.495l3.306,6.948h-0.574l-0.891-1.96h-4.067l-0.92,1.96H32.963z
				 M38.277,45.437l-1.88-3.989l-1.771,3.989H38.277z"/>
			<path style="fill:#3B2A98;" d="M40.076,47.851v-6.948h0.395h0.089h2.355c0.185,0,0.377,0.017,0.579,0.049
				c0.201,0.034,0.421,0.095,0.658,0.184c0.237,0.09,0.449,0.201,0.633,0.337c0.185,0.135,0.338,0.318,0.46,0.549
				c0.122,0.231,0.184,0.492,0.184,0.782c0,0.6-0.184,1.075-0.549,1.425c-0.367,0.349-0.846,0.575-1.44,0.673l2.275,2.95h-0.642
				L42.866,45c-0.007,0-0.02,0-0.039,0c-0.02,0-0.033,0-0.04,0h-2.207v2.851H40.076z M40.581,44.516h2.087
				c0.786-0.007,1.357-0.156,1.718-0.445c0.359-0.29,0.54-0.713,0.54-1.267c0-0.435-0.184-0.78-0.55-1.034
				c-0.366-0.255-0.811-0.382-1.332-0.382h-2.463v1.475V44.516z"/>
			<path style="fill:#DD2A1B;" d="M49.995,47.969c-0.526,0-1.003-0.098-1.429-0.292c-0.427-0.193-0.79-0.455-1.094-0.78
				c-0.304-0.327-0.538-0.705-0.704-1.134c-0.165-0.428-0.248-0.88-0.248-1.355v-0.02c0-0.475,0.085-0.929,0.253-1.36
				c0.169-0.432,0.404-0.813,0.707-1.143c0.304-0.33,0.67-0.593,1.1-0.787c0.428-0.195,0.907-0.292,1.436-0.292
				c0.52,0,0.994,0.097,1.424,0.292c0.429,0.194,0.794,0.455,1.099,0.781c0.303,0.327,0.537,0.705,0.702,1.134
				c0.165,0.428,0.248,0.88,0.248,1.355c0.006,0.007,0.006,0.013,0,0.02c0,0.475-0.084,0.93-0.253,1.361
				c-0.168,0.432-0.405,0.813-0.708,1.142c-0.305,0.33-0.671,0.593-1.104,0.786C50.991,47.872,50.516,47.969,49.995,47.969z
				 M50.017,47.503c0.427,0,0.821-0.08,1.181-0.242c0.358-0.162,0.669-0.382,0.931-0.663c0.26-0.281,0.463-0.609,0.609-0.985
				c0.146-0.376,0.217-0.778,0.217-1.207v-0.02c0-0.429-0.073-0.833-0.223-1.212c-0.148-0.379-0.353-0.709-0.613-0.99
				c-0.261-0.281-0.572-0.503-0.936-0.667c-0.362-0.166-0.759-0.248-1.188-0.248c-0.43,0-0.823,0.081-1.184,0.243
				c-0.358,0.162-0.669,0.382-0.929,0.663c-0.262,0.281-0.465,0.608-0.609,0.984c-0.145,0.377-0.218,0.78-0.218,1.208v0.02
				c0,0.428,0.075,0.833,0.223,1.213c0.149,0.379,0.352,0.708,0.613,0.989c0.262,0.281,0.573,0.503,0.936,0.668
				C49.19,47.422,49.586,47.503,50.017,47.503z"/>
			<path style="fill:#DD2A1B;" d="M54.547,47.851h-0.485v-6.948h0.485l4.769,5.967v-5.967h0.484v6.948h-0.327l-4.927-6.205V47.851z"
				/>
			<path style="fill:#DD2A1B;" d="M60.811,47.365h3.474h0.942v0.486h-4.902l0.024-6.948h4.879v0.495h-4.416v2.039v0.307v0.376h3.474
				h0.507v0.485h-3.703h-0.277V47.365z"/>
		</g>
	</g>
</g>
</svg>
